<svg width="404" height="234" viewBox="0 0 404 234" fill="none" xmlns="http://www.w3.org/2000/svg">
<mask id="mask0_2_60" style="mask-type:luminance" maskUnits="userSpaceOnUse" x="0" y="0" width="405" height="234">
<path d="M404 0H0.481262V234H404V0Z" fill="white"/>
</mask>
<g mask="url(#mask0_2_60)">
<path d="M295.397 29.2481C295.397 29.2481 292.792 33.931 292.026 34.1326C291.261 34.3343 289.308 51.8533 299.85 49.5938C310.393 47.3343 306.531 41.8417 306.531 41.8417C306.531 41.8417 306.714 35.792 307.118 35.3864C307.521 34.9808 295.851 29.031 295.851 29.031L295.397 29.2481Z" fill="#FFB9B9"/>
<path d="M364.575 96.5313H40.668C39.3011 96.5439 37.9946 97.0833 37.0326 98.0321C36.0706 98.9809 35.5309 100.262 35.5309 101.598C35.5309 102.934 36.0706 104.215 37.0326 105.164C37.9946 106.113 39.3011 106.652 40.668 106.665H49.8428V227.876C49.8557 229.211 50.4077 230.488 51.3788 231.428C52.3499 232.368 53.6616 232.895 55.0285 232.895C56.3955 232.895 57.7071 232.368 58.6782 231.428C59.6494 230.488 60.2014 229.211 60.2142 227.876L60.293 106.665H344.231V227.876C344.231 229.22 344.778 230.508 345.75 231.459C346.723 232.409 348.042 232.943 349.417 232.943C350.792 232.943 352.111 232.409 353.084 231.459C354.056 230.508 354.603 229.22 354.603 227.876L356.111 106.665H364.575C365.942 106.652 367.249 106.113 368.211 105.164C369.173 104.215 369.713 102.934 369.713 101.598C369.713 100.262 369.173 98.9809 368.211 98.0321C367.249 97.0833 365.942 96.5439 364.575 96.5313Z" fill="#CCCCCC"/>
<path d="M96.8131 73.9549V95.411H41.795C38.8946 95.4912 36.0795 94.4471 33.9642 92.5067C31.8489 90.5662 30.605 87.887 30.5041 85.0538C30.4033 82.2205 31.4535 79.4633 33.4258 77.3839C35.398 75.3045 38.132 74.0718 41.031 73.9549C41.2855 73.9462 41.5402 73.9462 41.795 73.9549H96.8131Z" fill="#F2F2F2"/>
<path d="M98.1645 95.2463C98.1644 95.4651 98.0754 95.6749 97.917 95.8297C97.7587 95.9844 97.5439 96.0714 97.3199 96.0715H40.8137C37.7448 96.0715 34.8015 94.8803 32.6314 92.76C30.4613 90.6397 29.2421 87.7639 29.2421 84.7653C29.2421 81.7668 30.4613 78.891 32.6314 76.7707C34.8015 74.6504 37.7448 73.4592 40.8137 73.4592H97.3199C97.5439 73.4592 97.7588 73.5461 97.9172 73.7009C98.0756 73.8556 98.1645 74.0655 98.1645 74.2844C98.1645 74.5033 98.0756 74.7132 97.9172 74.8679C97.7588 75.0227 97.5439 75.1096 97.3199 75.1096H40.8137C38.1929 75.1096 35.6794 76.1269 33.8262 77.9376C31.973 79.7483 30.9318 82.2042 30.9318 84.7649C30.9318 87.3256 31.973 89.7815 33.8262 91.5922C35.6794 93.4029 38.1929 94.4201 40.8137 94.4201H97.3199C97.4309 94.4202 97.5408 94.4416 97.6433 94.4831C97.7458 94.5247 97.8389 94.5856 97.9174 94.6623C97.9958 94.739 98.058 94.83 98.1004 94.9302C98.1428 95.0304 98.1646 95.1378 98.1645 95.2463Z" fill="#31E597"/>
<path d="M96.8131 78.9067H37.6901C37.6468 78.905 37.6058 78.887 37.5757 78.8566C37.5455 78.8261 37.5285 78.7856 37.5281 78.7432C37.5276 78.7009 37.5439 78.66 37.5735 78.629C37.603 78.598 37.6436 78.5793 37.6869 78.5767H96.8131C96.8563 78.5789 96.8971 78.5973 96.9269 78.628C96.9568 78.6587 96.9734 78.6994 96.9734 78.7417C96.9734 78.7841 96.9568 78.8248 96.9269 78.8555C96.8971 78.8862 96.8563 78.9045 96.8131 78.9067Z" fill="#CCCCCC"/>
<path d="M96.8131 82.8677H37.6901C37.6672 82.8691 37.6443 82.8658 37.6227 82.8583C37.6011 82.8507 37.5813 82.8389 37.5645 82.8236C37.5477 82.8083 37.5343 82.7899 37.5251 82.7694C37.5158 82.7489 37.511 82.7267 37.5107 82.7043C37.5105 82.6819 37.515 82.6597 37.5238 82.639C37.5327 82.6184 37.5457 82.5997 37.5622 82.5841C37.5787 82.5685 37.5982 82.5563 37.6197 82.5483C37.6411 82.5404 37.664 82.5368 37.6869 82.5377H96.8131C96.8563 82.5399 96.8971 82.5582 96.9269 82.5889C96.9567 82.6196 96.9734 82.6604 96.9734 82.7027C96.9734 82.745 96.9567 82.7857 96.9269 82.8164C96.8971 82.8471 96.8563 82.8655 96.8131 82.8677Z" fill="#CCCCCC"/>
<path d="M96.8131 86.8286H37.6901C37.6468 86.8269 37.6058 86.8089 37.5757 86.7785C37.5455 86.7481 37.5285 86.7075 37.5281 86.6651C37.5276 86.6228 37.5439 86.5819 37.5735 86.5509C37.603 86.5199 37.6436 86.5012 37.6869 86.4986H96.8131C96.8563 86.5008 96.8971 86.5192 96.9269 86.5499C96.9568 86.5806 96.9734 86.6213 96.9734 86.6636C96.9734 86.706 96.9568 86.7467 96.9269 86.7774C96.8971 86.8081 96.8563 86.8264 96.8131 86.8286Z" fill="#CCCCCC"/>
<path d="M96.8131 90.7901H37.6901C37.6672 90.7914 37.6443 90.7882 37.6227 90.7806C37.6011 90.7731 37.5813 90.7613 37.5645 90.746C37.5477 90.7307 37.5343 90.7123 37.5251 90.6918C37.5158 90.6712 37.511 90.6491 37.5107 90.6267C37.5105 90.6043 37.515 90.5821 37.5238 90.5614C37.5327 90.5407 37.5457 90.522 37.5622 90.5064C37.5787 90.4908 37.5982 90.4787 37.6197 90.4707C37.6411 90.4627 37.664 90.4591 37.6869 90.4601H96.8131C96.8563 90.4623 96.8971 90.4806 96.9269 90.5113C96.9567 90.542 96.9734 90.5827 96.9734 90.6251C96.9734 90.6674 96.9567 90.7081 96.9269 90.7388C96.8971 90.7695 96.8563 90.7879 96.8131 90.7901Z" fill="#CCCCCC"/>
<path d="M86.4417 51.3497V72.8059H31.4236C28.5232 72.886 25.7081 71.842 23.5928 69.9015C21.4775 67.9611 20.2336 65.2818 20.1327 62.4486C20.0318 59.6153 21.0821 56.8581 23.0543 54.7788C25.0266 52.6994 27.7606 51.4667 30.6596 51.3497C30.9141 51.341 31.1688 51.341 31.4236 51.3497H86.4417Z" fill="#F2F2F2"/>
<path d="M87.7932 72.6411C87.793 72.8599 87.704 73.0698 87.5457 73.2245C87.3873 73.3792 87.1725 73.4662 86.9486 73.4663H30.4424C27.3734 73.4663 24.4301 72.2752 22.26 70.1548C20.0899 68.0345 18.8708 65.1588 18.8708 62.1602C18.8708 59.1616 20.0899 56.2858 22.26 54.1655C24.4301 52.0452 27.3734 50.854 30.4424 50.854H86.9486C87.0595 50.854 87.1693 50.8754 87.2718 50.9168C87.3743 50.9583 87.4674 51.0191 87.5458 51.0957C87.6242 51.1723 87.6864 51.2633 87.7289 51.3634C87.7713 51.4636 87.7932 51.5709 87.7932 51.6793C87.7932 51.7876 87.7713 51.8949 87.7289 51.995C87.6864 52.0952 87.6242 52.1862 87.5458 52.2628C87.4674 52.3394 87.3743 52.4002 87.2718 52.4417C87.1693 52.4831 87.0595 52.5045 86.9486 52.5045H30.4424C27.8215 52.5045 25.308 53.5217 23.4548 55.3324C21.6016 57.1431 20.5604 59.599 20.5604 62.1597C20.5604 64.7205 21.6016 67.1763 23.4548 68.987C25.308 70.7977 27.8215 71.815 30.4424 71.815H86.9486C87.1725 71.8151 87.3873 71.9021 87.5457 72.0568C87.704 72.2115 87.793 72.4223 87.7932 72.6411Z" fill="#090814"/>
<path d="M86.4417 56.3011H27.3187C27.2958 56.3025 27.2729 56.2993 27.2513 56.2917C27.2297 56.2841 27.2099 56.2723 27.1932 56.2571C27.1764 56.2418 27.1629 56.2233 27.1537 56.2028C27.1445 56.1823 27.1396 56.1602 27.1394 56.1378C27.1391 56.1154 27.1436 56.0931 27.1524 56.0725C27.1613 56.0518 27.1743 56.0331 27.1908 56.0175C27.2073 56.0019 27.2269 55.9898 27.2483 55.9818C27.2697 55.9738 27.2926 55.9702 27.3155 55.9711H86.4417C86.4646 55.97 86.4875 55.9733 86.509 55.9811C86.5306 55.9889 86.5503 56.0008 86.5669 56.0163C86.5836 56.0317 86.5968 56.0503 86.6059 56.0709C86.6149 56.0915 86.6196 56.1137 86.6196 56.1361C86.6196 56.1585 86.6149 56.1807 86.6059 56.2013C86.5968 56.2219 86.5836 56.2405 86.5669 56.2559C86.5503 56.2714 86.5306 56.2834 86.509 56.2911C86.4875 56.2989 86.4646 56.3023 86.4417 56.3011Z" fill="#CCCCCC"/>
<path d="M86.4417 60.2621H27.3187C27.2958 60.2634 27.2729 60.2602 27.2513 60.2527C27.2297 60.2451 27.2099 60.2333 27.1932 60.218C27.1764 60.2027 27.1629 60.1843 27.1537 60.1638C27.1445 60.1433 27.1396 60.1211 27.1394 60.0987C27.1391 60.0763 27.1436 60.0541 27.1524 60.0334C27.1613 60.0128 27.1743 59.9941 27.1908 59.9785C27.2073 59.9629 27.2269 59.9507 27.2483 59.9427C27.2697 59.9348 27.2926 59.9311 27.3155 59.9321H86.4417C86.4646 59.9309 86.4875 59.9343 86.509 59.9421C86.5306 59.9498 86.5503 59.9618 86.5669 59.9773C86.5836 59.9927 86.5968 60.0113 86.6059 60.0319C86.6149 60.0525 86.6196 60.0747 86.6196 60.0971C86.6196 60.1195 86.6149 60.1417 86.6059 60.1623C86.5968 60.1829 86.5836 60.2015 86.5669 60.2169C86.5503 60.2324 86.5306 60.2443 86.509 60.2521C86.4875 60.2598 86.4646 60.2632 86.4417 60.2621Z" fill="#CCCCCC"/>
<path d="M86.4417 64.2235H27.3187C27.2958 64.2248 27.2729 64.2216 27.2513 64.2141C27.2297 64.2065 27.2099 64.1947 27.1932 64.1794C27.1764 64.1641 27.1629 64.1457 27.1537 64.1252C27.1445 64.1047 27.1396 64.0825 27.1394 64.0601C27.1391 64.0377 27.1436 64.0155 27.1524 63.9948C27.1613 63.9742 27.1743 63.9555 27.1908 63.9399C27.2073 63.9243 27.2269 63.9121 27.2483 63.9042C27.2697 63.8962 27.2926 63.8926 27.3155 63.8935H86.4417C86.4646 63.8923 86.4875 63.8957 86.509 63.9035C86.5306 63.9113 86.5503 63.9232 86.5669 63.9386C86.5836 63.9541 86.5968 63.9727 86.6059 63.9933C86.6149 64.0139 86.6196 64.0361 86.6196 64.0585C86.6196 64.0809 86.6149 64.1031 86.6059 64.1237C86.5968 64.1443 86.5836 64.1629 86.5669 64.1783C86.5503 64.1938 86.5306 64.2057 86.509 64.2135C86.4875 64.2213 86.4646 64.2247 86.4417 64.2235Z" fill="#CCCCCC"/>
<path d="M86.4417 68.1845H27.3187C27.2958 68.1858 27.2729 68.1826 27.2513 68.175C27.2297 68.1675 27.2099 68.1557 27.1932 68.1404C27.1764 68.1251 27.1629 68.1067 27.1537 68.0862C27.1445 68.0656 27.1396 68.0435 27.1394 68.0211C27.1391 67.9987 27.1436 67.9765 27.1524 67.9558C27.1613 67.9351 27.1743 67.9164 27.1908 67.9008C27.2073 67.8853 27.2269 67.8731 27.2483 67.8651C27.2697 67.8572 27.2926 67.8535 27.3155 67.8545H86.4417C86.4646 67.8533 86.4875 67.8567 86.509 67.8645C86.5306 67.8722 86.5503 67.8842 86.5669 67.8996C86.5836 67.9151 86.5968 67.9336 86.6059 67.9543C86.6149 67.9749 86.6196 67.997 86.6196 68.0195C86.6196 68.0419 86.6149 68.0641 86.6059 68.0847C86.5968 68.1053 86.5836 68.1239 86.5669 68.1393C86.5503 68.1547 86.5306 68.1667 86.509 68.1745C86.4875 68.1822 86.4646 68.1856 86.4417 68.1845Z" fill="#CCCCCC"/>
<path d="M150.444 172.456V153.748C150.444 152.921 150.108 152.128 149.51 151.543C148.911 150.959 148.1 150.63 147.253 150.63H74.6533C73.807 150.63 72.9955 150.959 72.397 151.543C71.7986 152.128 71.4624 152.921 71.4623 153.748V172.456H150.444Z" fill="#CCCCCC"/>
<path d="M150.444 179.472H71.4623V203.636H150.444V179.472Z" fill="#CCCCCC"/>
<path d="M71.4623 210.652V229.359C71.4623 230.186 71.7985 230.979 72.3969 231.564C72.9953 232.149 73.8069 232.477 74.6533 232.478H147.253C148.099 232.478 148.911 232.149 149.509 231.564C150.108 230.98 150.444 230.187 150.444 229.36V210.652H71.4623Z" fill="#CCCCCC"/>
<path d="M110.555 164.662C111.877 164.662 112.948 163.615 112.948 162.323C112.948 161.031 111.877 159.984 110.555 159.984C109.233 159.984 108.161 161.031 108.161 162.323C108.161 163.615 109.233 164.662 110.555 164.662Z" fill="white"/>
<path d="M110.555 195.842C111.877 195.842 112.948 194.795 112.948 193.503C112.948 192.211 111.877 191.164 110.555 191.164C109.233 191.164 108.161 192.211 108.161 193.503C108.161 194.795 109.233 195.842 110.555 195.842Z" fill="white"/>
<path d="M110.683 226.362C112.005 226.362 113.077 225.314 113.077 224.023C113.077 222.731 112.005 221.684 110.683 221.684C109.361 221.684 108.289 222.731 108.289 224.023C108.289 225.314 109.361 226.362 110.683 226.362Z" fill="white"/>
<path d="M141.49 129.3V150.756H86.4715C85.0241 150.814 83.5792 150.592 82.22 150.102C80.8608 149.613 79.6141 148.865 78.5517 147.903C77.4892 146.941 76.632 145.783 76.0293 144.496C75.4266 143.209 75.0904 141.818 75.04 140.404C74.9896 138.989 75.2259 137.579 75.7355 136.254C76.2451 134.929 77.0177 133.716 78.0091 132.684C79.0005 131.652 80.1909 130.821 81.512 130.24C82.833 129.66 84.2586 129.34 85.7066 129.3C85.9614 129.291 86.2164 129.291 86.4715 129.3H141.49Z" fill="#F2F2F2"/>
<path d="M142.842 150.59C142.841 150.809 142.752 151.019 142.594 151.174C142.436 151.329 142.221 151.416 141.997 151.416H85.4917C82.4227 151.418 79.4787 150.228 77.3073 148.109C75.1359 145.99 73.915 143.115 73.9132 140.116C73.9114 137.118 75.1288 134.241 77.2976 132.12C79.4664 129.998 82.409 128.805 85.4779 128.803H141.997C142.221 128.803 142.436 128.89 142.594 129.045C142.753 129.2 142.842 129.41 142.842 129.629C142.842 129.848 142.753 130.057 142.594 130.212C142.436 130.367 142.221 130.454 141.997 130.454H85.4917C82.8708 130.454 80.3573 131.471 78.5041 133.282C76.6509 135.093 75.6098 137.548 75.6098 140.109C75.6098 142.67 76.6509 145.126 78.5041 146.936C80.3573 148.747 82.8708 149.764 85.4917 149.764H141.998C142.222 149.765 142.436 149.852 142.595 150.007C142.753 150.162 142.842 150.372 142.842 150.59Z" fill="#090814"/>
<path d="M141.49 134.251H82.3671C82.3442 134.252 82.3213 134.249 82.2997 134.242C82.2781 134.234 82.2583 134.222 82.2415 134.207C82.2248 134.192 82.2113 134.173 82.2021 134.153C82.1929 134.132 82.188 134.11 82.1878 134.088C82.1875 134.065 82.192 134.043 82.2008 134.022C82.2097 134.002 82.2227 133.983 82.2392 133.967C82.2557 133.952 82.2752 133.94 82.2967 133.932C82.3181 133.924 82.341 133.92 82.3639 133.921H141.49C141.513 133.92 141.536 133.923 141.557 133.931C141.579 133.939 141.599 133.951 141.615 133.966C141.632 133.982 141.645 134 141.654 134.021C141.663 134.041 141.668 134.064 141.668 134.086C141.668 134.108 141.663 134.131 141.654 134.151C141.645 134.172 141.632 134.19 141.615 134.206C141.599 134.221 141.579 134.233 141.557 134.241C141.536 134.249 141.513 134.252 141.49 134.251Z" fill="#CCCCCC"/>
<path d="M141.49 138.212H82.3671C82.3442 138.214 82.3213 138.211 82.2997 138.203C82.2781 138.195 82.2583 138.184 82.2415 138.168C82.2248 138.153 82.2113 138.135 82.2021 138.114C82.1929 138.094 82.188 138.071 82.1878 138.049C82.1875 138.027 82.192 138.004 82.2008 137.984C82.2097 137.963 82.2227 137.944 82.2392 137.929C82.2557 137.913 82.2752 137.901 82.2967 137.893C82.3181 137.885 82.341 137.881 82.3639 137.882H141.49C141.513 137.881 141.536 137.885 141.557 137.892C141.579 137.9 141.599 137.912 141.615 137.928C141.632 137.943 141.645 137.962 141.654 137.982C141.663 138.003 141.668 138.025 141.668 138.047C141.668 138.07 141.663 138.092 141.654 138.113C141.645 138.133 141.632 138.152 141.615 138.167C141.599 138.183 141.579 138.195 141.557 138.202C141.536 138.21 141.513 138.214 141.49 138.212Z" fill="#CCCCCC"/>
<path d="M141.49 142.173H82.3671C82.3442 142.174 82.3213 142.171 82.2997 142.163C82.2781 142.156 82.2583 142.144 82.2415 142.129C82.2248 142.114 82.2113 142.095 82.2021 142.075C82.1929 142.054 82.188 142.032 82.1878 142.01C82.1875 141.987 82.192 141.965 82.2008 141.944C82.2097 141.924 82.2227 141.905 82.2392 141.889C82.2557 141.874 82.2752 141.862 82.2967 141.854C82.3181 141.846 82.341 141.842 82.3639 141.843H141.49C141.513 141.842 141.536 141.845 141.557 141.853C141.579 141.861 141.599 141.873 141.615 141.888C141.632 141.903 141.645 141.922 141.654 141.943C141.663 141.963 141.668 141.985 141.668 142.008C141.668 142.03 141.663 142.052 141.654 142.073C141.645 142.094 141.632 142.112 141.615 142.128C141.599 142.143 141.579 142.155 141.557 142.163C141.536 142.171 141.513 142.174 141.49 142.173Z" fill="#CCCCCC"/>
<path d="M141.49 146.134H82.3671C82.3442 146.136 82.3213 146.132 82.2997 146.125C82.2781 146.117 82.2583 146.106 82.2415 146.09C82.2248 146.075 82.2113 146.057 82.2021 146.036C82.1929 146.015 82.188 145.993 82.1878 145.971C82.1875 145.949 82.192 145.926 82.2008 145.906C82.2097 145.885 82.2227 145.866 82.2392 145.851C82.2557 145.835 82.2752 145.823 82.2967 145.815C82.3181 145.807 82.341 145.803 82.3639 145.804H141.49C141.513 145.803 141.536 145.807 141.557 145.814C141.579 145.822 141.599 145.834 141.615 145.849C141.632 145.865 141.645 145.883 141.654 145.904C141.663 145.925 141.668 145.947 141.668 145.969C141.668 145.992 141.663 146.014 141.654 146.035C141.645 146.055 141.632 146.074 141.615 146.089C141.599 146.105 141.579 146.117 141.557 146.124C141.536 146.132 141.513 146.135 141.49 146.134Z" fill="#CCCCCC"/>
<path d="M76.8741 44.1917H51.8061C51.5678 44.1912 51.3325 44.2445 51.1187 44.3475L44.7921 47.442C44.5839 47.5285 44.4063 47.6729 44.2815 47.8572C44.1567 48.0416 44.0901 48.2578 44.0901 48.4788C44.0901 48.6999 44.1567 48.916 44.2815 49.1004C44.4063 49.2847 44.5839 49.4291 44.7921 49.5156L51.1187 52.6102C51.3325 52.7131 51.5678 52.7664 51.8061 52.766H76.8741C77.2196 52.7854 77.5589 52.6711 77.8188 52.4479C78.0786 52.2246 78.2379 51.9103 78.2623 51.5731V45.3845C78.2379 45.0473 78.0786 44.733 77.8188 44.5098C77.5589 44.2865 77.2196 44.1722 76.8741 44.1917Z" fill="#090814"/>
<path d="M78.2623 45.3845V51.5731C78.2379 51.9103 78.0786 52.2246 77.8187 52.4479C77.5589 52.6711 77.2196 52.7854 76.8741 52.766H71.8789V44.1917H76.8741C77.2196 44.1722 77.5589 44.2865 77.8187 44.5098C78.0786 44.733 78.2379 45.0473 78.2623 45.3845Z" fill="#31E597"/>
<path d="M111.183 50.0413C113.374 50.7937 115.727 50.9821 118.015 50.5883C120.302 50.1946 122.448 49.2319 124.244 47.7931C128.819 44.0412 130.254 37.8598 131.421 32.1359L134.873 15.2062L127.645 20.069C122.448 23.5661 117.133 27.1747 113.534 32.2398C109.935 37.305 108.364 44.219 111.256 49.6997" fill="#E6E6E6"/>
<path d="M111.798 70.5388C111.065 65.3326 110.315 60.061 110.828 54.7971C111.283 50.1237 112.743 45.5591 115.714 41.8167C117.29 39.8338 119.209 38.1349 121.384 36.7963C121.951 36.4466 122.473 37.3247 121.908 37.6726C118.146 39.9958 115.236 43.4264 113.598 47.4698C111.788 51.9663 111.498 56.868 111.81 61.6443C111.999 64.5329 112.398 67.4027 112.801 70.2684C112.833 70.398 112.813 70.5345 112.746 70.6504C112.678 70.7663 112.568 70.8529 112.438 70.8926C112.305 70.9275 112.164 70.9099 112.044 70.8435C111.925 70.7771 111.837 70.6673 111.799 70.5379L111.798 70.5388Z" fill="#F2F2F2"/>
<path d="M118.845 61.3251C119.785 62.7208 121.077 63.8566 122.597 64.6229C124.117 65.3892 125.813 65.7602 127.522 65.7002C131.914 65.4965 135.575 62.5014 138.871 59.658L148.621 51.2476L142.168 50.9458C137.528 50.7291 132.768 50.5267 128.348 51.9246C123.929 53.3226 119.854 56.6875 119.046 61.1576" fill="#E6E6E6"/>
<path d="M109.733 73.5308C113.254 67.4434 117.338 60.6798 124.636 58.5158C126.665 57.9166 128.793 57.702 130.904 57.8835C131.57 57.9395 131.404 58.9421 130.739 58.8861C127.2 58.599 123.667 59.5121 120.736 61.4719C117.915 63.3476 115.719 65.9554 113.862 68.7213C112.723 70.4152 111.703 72.1812 110.683 73.9446C110.356 74.5078 109.403 74.1008 109.733 73.5308Z" fill="#F2F2F2"/>
<path d="M104.092 79.9384C104.21 78.5952 104.704 77.3096 105.518 76.2216C106.333 75.1335 107.438 74.2847 108.712 73.7677V70.2487H114.753V73.8787C115.965 74.4211 117.007 75.2678 117.775 76.3323C118.542 77.3968 119.007 78.6411 119.122 79.9384L120.542 96.072H102.669L104.092 79.9384Z" fill="#F2F2F2"/>
<path d="M218.712 96.0446L216.065 94.9557L214.25 81.9923H190.072L188.104 94.9028L185.736 96.0594C185.623 96.1148 185.532 96.2059 185.478 96.318C185.425 96.4301 185.411 96.5565 185.441 96.6769C185.47 96.7973 185.539 96.9046 185.639 96.9814C185.738 97.0581 185.861 97.1 185.987 97.1H218.494C218.624 97.1 218.75 97.0562 218.85 96.9758C218.951 96.8955 219.019 96.7837 219.045 96.6593C219.071 96.535 219.052 96.4058 218.991 96.2936C218.93 96.1815 218.832 96.0938 218.712 96.0446Z" fill="#E6E6E6"/>
<path d="M261.678 83.7171H142.909C142.286 83.7158 141.689 83.473 141.248 83.0421C140.808 82.6111 140.561 82.0271 140.561 81.4183V65.0546H264.026V81.4183C264.026 82.0271 263.778 82.6111 263.338 83.0421C262.898 83.473 262.301 83.7158 261.678 83.7171Z" fill="#CCCCCC"/>
<path d="M264.15 72.7884H140.453V2.77124C140.454 2.03658 140.754 1.3324 141.285 0.812961C141.817 0.293522 142.538 0.00118378 143.29 0H261.313C262.065 0.00118378 262.786 0.293522 263.317 0.812961C263.849 1.3324 264.148 2.03658 264.15 2.77124V72.7884Z" fill="#090814"/>
<path d="M256.762 67.7067H147.841C147.261 67.7061 146.705 67.4808 146.295 67.0802C145.885 66.6796 145.655 66.1365 145.654 65.5699V7.21848C145.655 6.65196 145.885 6.10882 146.295 5.70823C146.705 5.30764 147.261 5.08232 147.841 5.08173H256.762C257.342 5.08232 257.898 5.30764 258.308 5.70823C258.717 6.10882 258.948 6.65196 258.949 7.21848V65.5717C258.948 66.1382 258.717 66.6814 258.308 67.082C257.898 67.4826 257.342 67.7079 256.762 67.7085V67.7067Z" fill="white"/>
<path d="M228.074 88.2973C228.777 87.6628 229.614 87.1867 230.526 86.9025C231.439 86.6183 232.403 86.533 233.353 86.6525C234.302 86.7721 235.213 87.0935 236.022 87.5943C236.831 88.0952 237.517 88.7631 238.033 89.5511L252.766 86.9916L256.541 95.36L235.684 98.6856C234.272 99.442 232.625 99.6667 231.055 99.3172C229.485 98.9676 228.101 98.068 227.164 96.7885C226.227 95.509 225.802 93.9384 225.97 92.3737C226.138 90.809 226.888 89.3588 228.076 88.2973H228.074Z" fill="#FFB6B6"/>
<path d="M241.714 98.9807L257.073 98.7935L259.017 98.768L290.266 98.3833C290.266 98.3833 298.752 90.4735 306.142 82.3295L305.105 75.0098C304.095 67.8268 300.448 61.247 294.844 56.495C284.261 63.4045 278.123 77.0803 278.123 77.0803L258.747 81.6081L256.809 82.0608L244.77 84.8719L241.714 98.9807Z" fill="#31E597"/>
<path d="M320.34 143.968H291.67C291.67 145.168 260.33 146.142 260.33 146.142C259.638 146.651 259.008 147.235 258.451 147.882C256.778 149.831 255.864 152.296 255.869 154.84V156.579C255.87 159.462 257.043 162.227 259.129 164.266C261.216 166.304 264.045 167.45 266.996 167.451H320.34C323.291 167.449 326.119 166.303 328.206 164.264C330.292 162.226 331.465 159.462 331.467 156.579V154.84C331.463 151.958 330.289 149.195 328.204 147.157C326.118 145.119 323.29 143.972 320.34 143.968Z" fill="#E4E4E4"/>
<path d="M299.492 167.02H287.919V232.284H299.492V167.02Z" fill="#E4E4E4"/>
<path d="M254.982 231.887C254.982 233.108 272.518 232.359 294.15 232.359C315.782 232.359 333.318 233.108 333.318 231.887C333.318 230.665 315.782 220.977 294.15 220.977C272.518 220.977 254.982 230.665 254.982 231.887Z" fill="#E4E4E4"/>
<path d="M247.208 224.429H238.595L234.498 191.971H247.209L247.208 224.429Z" fill="#FFB6B6"/>
<path d="M221.753 224.429H213.14L209.043 191.971H221.754L221.753 224.429Z" fill="#FFB6B6"/>
<path d="M298.903 37.5642C307.173 37.5642 313.878 31.0136 313.878 22.9329C313.878 14.8523 307.173 8.30164 298.903 8.30164C290.633 8.30164 283.928 14.8523 283.928 22.9329C283.928 31.0136 290.633 37.5642 298.903 37.5642Z" fill="#FFB6B6"/>
<path d="M323.14 123.182C323.14 123.182 328.164 149.142 309.047 152.447C289.929 155.753 262.33 158.077 262.33 158.077L249.939 214.57L233.29 213.118C233.29 213.118 235.504 145.112 240.95 139.792C246.395 134.471 280.812 118.542 280.812 118.542L323.14 123.182Z" fill="#090814"/>
<path d="M285.802 112.302L277.44 120.496C277.44 120.496 217.068 129.999 214.739 143.623C211.223 164.192 207.07 208.922 207.07 208.922L225.221 207.591L232.339 156.746L261.381 150.292L294.423 132.698L285.802 112.302Z" fill="#090814"/>
<path d="M313.313 14.1992C311.834 11.4741 309.955 6.04309 306.973 5.03561C305.316 4.49875 303.603 4.14226 301.866 3.97261L296.795 5.87832L299.555 3.78097C299.018 3.75111 298.481 3.72559 297.944 3.70439L294.522 4.99039L296.273 3.66007C293.082 3.62827 289.79 3.95201 287.318 5.84966C285.21 7.46744 283.123 13.5961 282.785 16.1931C282.424 18.6779 282.55 21.2071 283.157 23.6458L284.024 24.4518C284.327 23.7727 284.555 23.0639 284.704 22.3374C285.014 20.98 285.611 19.7007 286.456 18.5811C287.3 17.4615 288.374 16.5261 289.61 15.8345L289.655 15.8085C291.109 15.0092 292.873 15.0473 294.539 15.1046L302.455 15.3831C304.359 15.4503 306.41 15.568 307.895 16.7349C308.838 17.5959 309.58 18.646 310.07 19.8133C310.807 21.2681 312.249 26.7538 312.249 26.7538C312.249 26.7538 313.065 25.7181 313.456 26.4887C314.083 24.4772 314.464 22.4004 314.591 20.3014C314.717 18.1933 314.276 16.0898 313.313 14.1992Z" fill="#090814"/>
<path d="M365.689 29.3589C364.734 29.4206 363.804 29.6861 362.966 30.1367C362.127 30.5874 361.399 31.2122 360.835 31.9672C360.27 32.7222 359.881 33.589 359.696 34.5066C359.511 35.4241 359.534 36.3702 359.764 37.2781L347.72 45.9572L351.331 54.3932L368.161 41.9031C369.697 41.4252 371 40.4133 371.824 39.0592C372.647 37.7051 372.933 36.1029 372.628 34.5563C372.323 33.0097 371.448 31.6262 370.168 30.6681C368.889 29.71 367.294 29.2438 365.686 29.358L365.689 29.3589Z" fill="#FFB6B6"/>
<path d="M363.751 47.0766L333.563 79.8349C333.563 79.8349 319.127 75.3192 307.961 70.4238L302.945 55.3715C301.78 51.8797 301.283 48.2082 301.478 44.5405C316.956 40.5164 334.959 55.4898 334.959 55.4898L357.556 38.1951L363.751 47.0766Z" fill="#31E597"/>
<path d="M293.31 125.601C287.924 123.783 282.357 121.904 276.347 121.199L276.089 121.168L276.16 120.924C282.379 99.591 280.827 85.9448 277.779 65.4455C277.132 61.0239 277.964 56.5161 280.154 52.5949C282.343 48.6738 285.771 45.5495 289.927 43.6884L289.964 43.6722L307.121 42.607L307.16 42.6048L319.638 46.1905C321.433 46.7102 323.004 47.7905 324.11 49.266C325.217 50.7414 325.798 52.5307 325.764 54.3596C325.626 61.1012 325.915 68.6278 326.219 76.5958C326.9 94.4725 327.604 112.958 323.607 124.951L323.586 125.014L323.533 125.055C319.86 127.978 315.258 129.557 310.521 129.52C304.922 129.521 299.208 127.592 293.31 125.601Z" fill="#31E597"/>
<path d="M403.417 234H1.06466C0.743866 234 0.481728 233.651 0.481728 233.22C0.481728 232.79 0.74295 232.441 1.06466 232.441H403.417C403.738 232.441 404 232.79 404 233.22C404 233.651 403.739 234 403.417 234Z" fill="#CCCCCC"/>
<path d="M219.484 220.313C220.33 219.439 221.112 218.506 221.821 217.523C223.177 215.687 224.38 225.095 224.38 225.095C224.38 225.095 225.686 228.921 225.359 230.834C225.033 232.747 217.528 232.747 216.223 232.428C214.917 232.11 208.391 232.428 208.391 232.428H198.599C190.115 228.603 198.599 226.052 198.599 226.052C201.212 225.733 210.021 217.762 210.021 217.762L211.978 214.255C213.284 213.936 214.591 218.719 214.591 218.719L219.484 220.313Z" fill="#090814"/>
<path d="M244.82 220.313C245.667 219.439 246.448 218.506 247.158 217.523C248.514 215.687 249.717 225.095 249.717 225.095C249.717 225.095 251.022 228.921 250.696 230.834C250.37 232.747 242.864 232.747 241.559 232.428C240.254 232.11 233.728 232.428 233.728 232.428H223.936C215.452 228.603 223.936 226.052 223.936 226.052C226.548 225.733 235.357 217.762 235.357 217.762L237.315 214.255C238.62 213.936 239.927 218.719 239.927 218.719L244.82 220.313Z" fill="#090814"/>
</g>
</svg>
