<svg width="800" height="619" viewBox="0 0 800 619" fill="none" xmlns="http://www.w3.org/2000/svg">
<g clip-path="url(#clip0_2_61)">
<path d="M130.66 616.539C130.66 617.411 131.138 618.112 131.733 618.112H666.833C667.433 618.112 667.906 617.412 667.906 616.539C667.906 615.666 667.428 614.966 666.833 614.966H131.733C131.138 614.967 130.66 615.667 130.66 616.539Z" fill="#CCCCCC"/>
<path d="M324.267 611.354H305.162V614.725H324.267V611.354Z" fill="#B6B3C5"/>
<path d="M493.4 611.915H474.295V615.286H493.4V611.915Z" fill="#B6B3C5"/>
<path d="M426.676 461.323C425.612 467.759 422.298 473.607 417.324 477.827C412.349 482.047 406.038 484.363 399.516 484.363C392.993 484.363 386.682 482.047 381.707 477.827C376.733 473.607 373.419 467.759 372.355 461.323H302.867V611.914H496.167V461.323H426.676Z" fill="#D6D6E3"/>
<path d="M496.726 599.983H303.43V605.225H496.726V599.983Z" fill="#090814"/>
<path d="M788.255 465.259H10.776C7.919 465.256 5.17993 464.119 3.15973 462.099C1.13952 460.079 0.00317621 457.34 0 454.483L0 10.777C0.00291155 7.91983 1.13914 5.1805 3.15937 3.16008C5.17961 1.13966 7.91883 0.00317668 10.776 0H788.255C791.112 0.00344032 793.851 1.13987 795.871 3.16002C797.891 5.18016 799.028 7.91908 799.031 10.776V454.483C799.028 457.34 797.891 460.079 795.871 462.099C793.851 464.119 791.112 465.256 788.255 465.259Z" fill="#090814"/>
<path d="M780.369 17.979H19.547V447.276H780.369V17.979Z" fill="white"/>
<path d="M689.524 98.556H300.439C296.021 98.556 292.439 102.138 292.439 106.556V336.422C292.439 340.84 296.021 344.422 300.439 344.422H689.524C693.942 344.422 697.524 340.84 697.524 336.422V106.556C697.524 102.138 693.942 98.556 689.524 98.556Z" fill="#F2F2F2"/>
<path d="M688.981 105.897H300V336.523H688.981V105.897Z" fill="white"/>
<path d="M244.055 98.556H110.881C106.463 98.556 102.881 102.138 102.881 106.556V204.521C102.881 208.939 106.463 212.521 110.881 212.521H244.055C248.473 212.521 252.055 208.939 252.055 204.521V106.556C252.055 102.138 248.473 98.556 244.055 98.556Z" fill="#F2F2F2"/>
<path d="M244.642 104.22H110.293V206.859H244.642V104.22Z" fill="white"/>
<path d="M244.055 230.456H110.881C106.463 230.456 102.881 234.038 102.881 238.456V336.421C102.881 340.839 106.463 344.421 110.881 344.421H244.055C248.473 344.421 252.055 340.839 252.055 336.421V238.456C252.055 234.038 248.473 230.456 244.055 230.456Z" fill="#F2F2F2"/>
<path d="M244.642 236.12H110.293V338.759H244.642V236.12Z" fill="white"/>
<path d="M196.014 118.587H149.023C147.43 118.589 145.902 119.222 144.776 120.349C143.649 121.475 143.016 123.003 143.014 124.596V179.77C143.016 181.363 143.649 182.89 144.776 184.017C145.902 185.143 147.43 185.777 149.023 185.779H196.012C197.605 185.777 199.132 185.143 200.259 184.017C201.385 182.89 202.019 181.363 202.021 179.77V124.596C202.019 123.003 201.385 121.476 200.259 120.35C199.133 119.223 197.606 118.589 196.014 118.587Z" fill="#E6E6E6"/>
<path d="M196.014 120.315H149.025C147.891 120.317 146.803 120.768 146.001 121.57C145.199 122.372 144.747 123.46 144.746 124.594V179.768C144.747 180.903 145.199 181.99 146.001 182.793C146.803 183.595 147.891 184.046 149.025 184.047H196.014C197.149 184.046 198.236 183.595 199.038 182.793C199.841 181.99 200.292 180.903 200.293 179.768V124.594C200.292 123.46 199.841 122.372 199.038 121.57C198.236 120.768 197.149 120.317 196.014 120.315Z" fill="white"/>
<path d="M200.949 192.492C207.007 192.492 211.918 187.581 211.918 181.523C211.918 175.465 207.007 170.554 200.949 170.554C194.891 170.554 189.98 175.465 189.98 181.523C189.98 187.581 194.891 192.492 200.949 192.492Z" fill="#31E597"/>
<path d="M206.196 180.091H202.381V176.276C202.381 175.896 202.231 175.532 201.962 175.264C201.694 174.995 201.33 174.845 200.95 174.845C200.571 174.845 200.207 174.995 199.939 175.264C199.67 175.532 199.519 175.896 199.519 176.276V180.091H195.704C195.325 180.091 194.961 180.241 194.693 180.51C194.424 180.778 194.273 181.142 194.273 181.522C194.273 181.901 194.424 182.265 194.693 182.534C194.961 182.802 195.325 182.953 195.704 182.953H199.519V186.768C199.519 187.147 199.67 187.511 199.939 187.78C200.207 188.048 200.571 188.199 200.95 188.199C201.33 188.199 201.694 188.048 201.962 187.78C202.231 187.511 202.381 187.147 202.381 186.768V182.953H206.196C206.576 182.953 206.94 182.802 207.208 182.534C207.477 182.265 207.627 181.901 207.627 181.522C207.627 181.142 207.477 180.778 207.208 180.51C206.94 180.241 206.576 180.091 206.196 180.091Z" fill="white"/>
<path d="M188.941 150.634H165.18C164.914 150.634 164.66 150.528 164.473 150.341C164.285 150.153 164.18 149.899 164.18 149.634C164.18 149.369 164.285 149.114 164.473 148.927C164.66 148.739 164.914 148.634 165.18 148.634H188.942C189.207 148.634 189.461 148.739 189.649 148.927C189.836 149.114 189.942 149.369 189.942 149.634C189.942 149.899 189.836 150.153 189.649 150.341C189.461 150.528 189.206 150.634 188.941 150.634Z" fill="#E6E6E6"/>
<path d="M193.068 154.011H165.178C164.913 154.011 164.658 153.905 164.471 153.718C164.283 153.53 164.178 153.276 164.178 153.011C164.178 152.746 164.283 152.491 164.471 152.304C164.658 152.116 164.913 152.011 165.178 152.011H193.068C193.333 152.011 193.587 152.116 193.775 152.304C193.962 152.491 194.068 152.746 194.068 153.011C194.068 153.276 193.962 153.53 193.775 153.718C193.587 153.905 193.333 154.011 193.068 154.011Z" fill="#E6E6E6"/>
<path d="M188.94 165.767H165.178C164.913 165.767 164.658 165.661 164.471 165.474C164.283 165.286 164.178 165.032 164.178 164.767C164.178 164.501 164.283 164.247 164.471 164.059C164.658 163.872 164.913 163.767 165.178 163.767H188.94C189.205 163.767 189.459 163.872 189.647 164.059C189.834 164.247 189.94 164.501 189.94 164.767C189.94 165.032 189.834 165.286 189.647 165.474C189.459 165.661 189.205 165.767 188.94 165.767Z" fill="#E6E6E6"/>
<path d="M193.068 169.147H165.178C164.913 169.147 164.658 169.042 164.471 168.855C164.283 168.667 164.178 168.413 164.178 168.147C164.178 167.882 164.283 167.628 164.471 167.44C164.658 167.253 164.913 167.147 165.178 167.147H193.068C193.333 167.147 193.587 167.253 193.775 167.44C193.962 167.628 194.068 167.882 194.068 168.147C194.068 168.413 193.962 168.667 193.775 168.855C193.587 169.042 193.333 169.147 193.068 169.147Z" fill="#E6E6E6"/>
<path d="M159.856 155.544H151.447C151.319 155.544 151.197 155.493 151.107 155.403C151.017 155.313 150.967 155.191 150.967 155.064V147.579C150.967 147.451 151.017 147.329 151.107 147.239C151.197 147.149 151.319 147.099 151.447 147.099H159.856C159.983 147.099 160.105 147.149 160.195 147.239C160.285 147.329 160.336 147.451 160.336 147.579V155.064C160.336 155.191 160.285 155.313 160.195 155.403C160.105 155.493 159.983 155.544 159.856 155.544Z" fill="#E6E6E6"/>
<path d="M159.856 170.678H151.447C151.319 170.678 151.197 170.628 151.107 170.538C151.017 170.448 150.967 170.326 150.967 170.198V162.711C150.967 162.584 151.017 162.462 151.107 162.372C151.197 162.282 151.319 162.231 151.447 162.231H159.856C159.983 162.231 160.105 162.282 160.195 162.372C160.285 162.462 160.336 162.584 160.336 162.711V170.196C160.336 170.26 160.324 170.322 160.3 170.381C160.276 170.439 160.24 170.492 160.196 170.537C160.151 170.582 160.098 170.617 160.04 170.642C159.982 170.666 159.919 170.678 159.856 170.678Z" fill="#E6E6E6"/>
<path d="M188.966 133.784H171.451C171.186 133.784 170.932 133.679 170.744 133.491C170.556 133.304 170.451 133.049 170.451 132.784C170.451 132.519 170.556 132.265 170.744 132.077C170.932 131.89 171.186 131.784 171.451 131.784H188.97C189.235 131.784 189.49 131.89 189.677 132.077C189.865 132.265 189.97 132.519 189.97 132.784C189.97 133.049 189.865 133.304 189.677 133.491C189.49 133.679 189.235 133.784 188.97 133.784H188.966Z" fill="#31E597"/>
<path d="M193.094 137.161H171.451C171.186 137.161 170.932 137.056 170.744 136.868C170.556 136.681 170.451 136.426 170.451 136.161C170.451 135.896 170.556 135.642 170.744 135.454C170.932 135.267 171.186 135.161 171.451 135.161H193.097C193.362 135.161 193.617 135.267 193.804 135.454C193.992 135.642 194.097 135.896 194.097 136.161C194.097 136.426 193.992 136.681 193.804 136.868C193.617 137.056 193.362 137.161 193.097 137.161H193.094Z" fill="#31E597"/>
<path d="M167.571 141.254H151.421C151.294 141.254 151.172 141.204 151.082 141.114C150.992 141.024 150.941 140.902 150.941 140.774V128.174C150.941 128.047 150.992 127.925 151.082 127.835C151.172 127.745 151.294 127.694 151.421 127.694H167.571C167.699 127.694 167.821 127.745 167.911 127.835C168.001 127.925 168.051 128.047 168.051 128.174V140.774C168.051 140.902 168.001 141.024 167.911 141.114C167.821 141.204 167.699 141.254 167.571 141.254Z" fill="#31E597"/>
<path d="M550.113 277.666H447.445C446.152 277.664 444.913 277.15 443.999 276.235C443.084 275.32 442.571 274.08 442.57 272.787V133.415C442.572 132.123 443.086 130.884 444 129.97C444.914 129.056 446.153 128.542 447.445 128.54H550.113C551.406 128.542 552.645 129.056 553.559 129.97C554.473 130.884 554.987 132.123 554.988 133.415V272.787C554.988 274.08 554.474 275.32 553.56 276.235C552.646 277.15 551.406 277.664 550.113 277.666Z" fill="#F2F2F2"/>
<path d="M476.951 183.618C476.726 183.635 476.51 183.711 476.324 183.838C477.269 183.779 478.209 183.649 479.134 183.448L476.951 183.618Z" fill="#2F2E41"/>
<path d="M475.082 145.224C470.768 145.224 466.575 146.649 463.154 149.276C459.733 151.904 457.274 155.587 456.16 159.755C455.046 163.923 455.34 168.341 456.994 172.326C458.649 176.31 461.572 179.636 465.31 181.789C466.303 182.363 467.345 182.848 468.423 183.238L468.606 183.301C470.687 184.031 472.877 184.403 475.082 184.401C475.509 184.401 475.935 184.387 476.355 184.355C477.326 184.294 478.292 184.161 479.242 183.955C479.774 183.839 480.296 183.701 480.79 183.55C480.91 183.515 481.023 183.48 481.146 183.441C485.58 181.997 489.354 179.018 491.789 175.041C494.223 171.064 495.159 166.348 494.429 161.743C493.698 157.137 491.348 152.943 487.802 149.915C484.256 146.886 479.746 145.222 475.082 145.222V145.224ZM486.446 179.487C484.756 180.791 482.854 181.794 480.823 182.452L480.488 182.558C480.019 182.703 479.526 182.829 479.018 182.939C478.119 183.135 477.205 183.262 476.286 183.32C475.886 183.348 475.486 183.362 475.08 183.362C472.993 183.363 470.92 183.011 468.949 182.322L468.776 182.262C467.704 181.876 466.67 181.39 465.688 180.81C462.271 178.798 459.589 175.743 458.036 172.093C456.484 168.444 456.142 164.393 457.063 160.535C457.983 156.677 460.117 153.217 463.15 150.662C466.183 148.107 469.956 146.592 473.914 146.34C477.872 146.087 481.806 147.112 485.139 149.261C488.471 151.411 491.027 154.573 492.429 158.283C493.832 161.992 494.007 166.054 492.93 169.871C491.853 173.688 489.58 177.058 486.445 179.488L486.446 179.487Z" fill="#CCCCCC"/>
<path d="M530.24 164.736H501.189C500.579 164.736 499.994 164.493 499.562 164.062C499.131 163.631 498.889 163.046 498.889 162.436C498.889 161.826 499.131 161.241 499.562 160.809C499.994 160.378 500.579 160.136 501.189 160.136H530.24C530.85 160.136 531.435 160.378 531.866 160.809C532.297 161.241 532.54 161.826 532.54 162.436C532.54 163.046 532.297 163.631 531.866 164.062C531.435 164.493 530.85 164.736 530.24 164.736Z" fill="#E6E6E6"/>
<path d="M539.72 172.492H501.189C500.579 172.492 499.994 172.249 499.562 171.818C499.131 171.387 498.889 170.802 498.889 170.192C498.889 169.582 499.131 168.997 499.562 168.565C499.994 168.134 500.579 167.892 501.189 167.892H539.721C540.331 167.892 540.916 168.134 541.347 168.565C541.778 168.997 542.021 169.582 542.021 170.192C542.021 170.802 541.778 171.387 541.347 171.818C540.916 172.249 540.33 172.492 539.72 172.492Z" fill="#E6E6E6"/>
<path d="M530.194 202.246H457.839C457.229 202.246 456.644 202.003 456.213 201.572C455.781 201.141 455.539 200.556 455.539 199.946C455.539 199.336 455.781 198.751 456.213 198.319C456.644 197.888 457.229 197.646 457.839 197.646H530.194C530.804 197.646 531.389 197.888 531.82 198.319C532.252 198.751 532.494 199.336 532.494 199.946C532.494 200.556 532.252 201.141 531.82 201.572C531.389 202.003 530.804 202.246 530.194 202.246Z" fill="#E6E6E6"/>
<path d="M539.674 210.001H457.839C457.229 210.001 456.644 209.759 456.213 209.328C455.781 208.896 455.539 208.311 455.539 207.701C455.539 207.091 455.781 206.506 456.213 206.075C456.644 205.644 457.229 205.401 457.839 205.401H539.675C540.285 205.401 540.87 205.644 541.301 206.075C541.733 206.506 541.975 207.091 541.975 207.701C541.975 208.311 541.733 208.896 541.301 209.328C540.87 209.759 540.285 210.001 539.675 210.001H539.674Z" fill="#E6E6E6"/>
<path d="M592.944 182.733C593.038 181.86 592.861 180.979 592.438 180.209C592.014 179.44 591.364 178.82 590.575 178.433L511.451 139.761C510.435 139.264 509.263 139.191 508.193 139.558C507.123 139.925 506.243 140.702 505.746 141.718L476.062 202.439C475.567 203.456 475.495 204.628 475.862 205.698C476.23 206.768 477.007 207.649 478.023 208.147L557.146 246.819C558.164 247.314 559.336 247.386 560.406 247.019C561.476 246.651 562.356 245.875 562.854 244.859L592.531 184.14C592.75 183.698 592.889 183.222 592.944 182.733Z" fill="white"/>
<path d="M592.944 182.733C593.038 181.86 592.861 180.979 592.438 180.209C592.014 179.44 591.364 178.82 590.575 178.433L511.451 139.761C510.435 139.264 509.263 139.191 508.193 139.558C507.123 139.925 506.243 140.702 505.746 141.718L476.062 202.439C475.567 203.456 475.495 204.628 475.862 205.698C476.23 206.768 477.007 207.649 478.023 208.147L557.146 246.819C558.164 247.314 559.336 247.386 560.406 247.019C561.476 246.651 562.356 245.875 562.854 244.859L592.531 184.14C592.75 183.698 592.889 183.222 592.944 182.733ZM562.408 244.638C561.968 245.534 561.191 246.219 560.247 246.543C559.303 246.868 558.269 246.804 557.372 246.367L478.247 207.695C477.351 207.255 476.666 206.478 476.342 205.534C476.018 204.59 476.081 203.556 476.519 202.659L506.195 141.94C506.634 141.044 507.411 140.359 508.355 140.034C509.299 139.71 510.333 139.774 511.23 140.211L590.354 178.883C591.251 179.322 591.936 180.099 592.26 181.044C592.584 181.988 592.521 183.022 592.083 183.919L562.408 244.638Z" fill="#3F3D56"/>
<path d="M584.31 185.498L563.588 227.897C563.449 228.18 563.204 228.397 562.907 228.499C562.609 228.602 562.283 228.582 562 228.444L490.026 193.266C489.974 193.241 489.925 193.212 489.879 193.179C489.643 193.018 489.473 192.778 489.399 192.503C489.326 192.228 489.354 191.935 489.479 191.679L510.201 149.279C510.339 148.996 510.584 148.779 510.882 148.677C511.179 148.574 511.506 148.595 511.789 148.733L583.763 183.91C584.046 184.049 584.262 184.294 584.364 184.591C584.467 184.889 584.447 185.215 584.309 185.499L584.31 185.498Z" fill="#E6E6E6"/>
<path d="M521.122 183.341C526.879 183.341 531.545 178.675 531.545 172.918C531.545 167.162 526.879 162.495 521.122 162.495C515.366 162.495 510.699 167.162 510.699 172.918C510.699 178.675 515.366 183.341 521.122 183.341Z" fill="#31E597"/>
<path d="M536.384 216.133L490.444 193.68C490.386 193.652 490.331 193.618 490.279 193.58L530.401 166.564C530.648 166.394 530.936 166.293 531.235 166.271C531.534 166.249 531.833 166.307 532.103 166.438C532.372 166.57 532.601 166.771 532.768 167.02C532.934 167.27 533.031 167.559 533.049 167.858L535.287 200.241L535.395 201.791L536.384 216.133Z" fill="#090814"/>
<path opacity="0.2" d="M536.386 216.132L520.701 208.466L533.867 201.045L534.815 200.511L535.289 200.243L535.397 201.793L536.386 216.132Z" fill="black"/>
<path d="M561.964 228.633L522.23 209.213L535.396 201.792L536.344 201.257L553.501 191.586C553.788 191.45 554.099 191.376 554.416 191.369C554.732 191.361 555.047 191.42 555.339 191.542C555.632 191.664 555.895 191.846 556.112 192.076C556.33 192.307 556.496 192.58 556.601 192.879C556.625 192.961 556.644 193.045 556.657 193.13L561.964 228.633Z" fill="#090814"/>
<path d="M580.596 308.999H406.632C403.548 308.996 400.59 307.769 398.409 305.588C396.228 303.407 395.001 300.45 394.998 297.365V201.828C395.001 198.744 396.228 195.787 398.409 193.606C400.59 191.425 403.548 190.198 406.632 190.194H427.961C430.855 190.192 433.646 191.271 435.786 193.219L458.916 209.736C460.424 211.114 462.393 211.878 464.436 211.876H581.677C583.219 211.876 584.745 212.183 586.168 212.778C587.59 213.373 588.88 214.245 589.962 215.343C591.045 216.441 591.898 217.743 592.473 219.173C593.047 220.604 593.332 222.135 593.31 223.676L592.23 297.532C592.174 300.585 590.925 303.494 588.75 305.637C586.576 307.78 583.649 308.987 580.596 308.999Z" fill="#31E597"/>
<path d="M475.766 177.434H475.785C478.986 177.26 482.001 175.874 484.218 173.559C486.436 171.244 487.689 168.172 487.725 164.966C487.761 161.761 486.576 158.662 484.412 156.297C482.247 153.933 479.264 152.48 476.068 152.234C476.028 152.231 475.989 152.236 475.951 152.249C475.914 152.262 475.88 152.282 475.851 152.309C475.821 152.336 475.798 152.368 475.782 152.404C475.766 152.44 475.757 152.479 475.756 152.518L475.48 177.146C475.48 177.184 475.487 177.222 475.501 177.257C475.516 177.292 475.536 177.324 475.563 177.351C475.59 177.379 475.621 177.4 475.656 177.415C475.691 177.43 475.729 177.438 475.766 177.438V177.434Z" fill="#31E597"/>
<path d="M465.863 156.302C465.962 156.303 466.055 156.343 466.124 156.413L474.602 165.084C474.637 165.118 474.664 165.159 474.682 165.205C474.7 165.25 474.709 165.298 474.708 165.347L474.576 177.131C474.576 177.181 474.565 177.231 474.544 177.277C474.524 177.323 474.494 177.365 474.456 177.399C474.419 177.434 474.375 177.461 474.327 177.478C474.279 177.495 474.227 177.502 474.176 177.499C471.819 177.323 469.557 176.494 467.645 175.103C465.732 173.712 464.246 171.816 463.353 169.627C462.459 167.438 462.194 165.043 462.587 162.712C462.98 160.381 464.015 158.205 465.576 156.43C465.61 156.391 465.652 156.36 465.698 156.339C465.744 156.317 465.794 156.305 465.845 156.304L465.863 156.302Z" fill="#E6E6E6"/>
<path d="M474.483 152.13C474.577 152.13 474.668 152.166 474.737 152.23C474.774 152.265 474.803 152.307 474.822 152.354C474.842 152.4 474.852 152.45 474.851 152.501L474.732 163.134C474.731 163.207 474.709 163.279 474.668 163.339C474.626 163.4 474.568 163.447 474.5 163.474C474.432 163.501 474.357 163.508 474.286 163.493C474.214 163.478 474.148 163.441 474.097 163.389L466.697 155.823C466.662 155.787 466.635 155.744 466.617 155.697C466.599 155.65 466.59 155.6 466.592 155.55C466.594 155.5 466.606 155.451 466.627 155.405C466.649 155.36 466.679 155.319 466.717 155.286C468.869 153.392 471.597 152.279 474.459 152.128L474.483 152.13Z" fill="#090814"/>
<path d="M177.47 289.597C168.77 289.597 161.685 282.075 161.685 272.829C161.685 263.583 168.766 256.061 177.47 256.061C186.174 256.061 193.255 263.583 193.255 272.829C193.255 282.075 186.174 289.597 177.47 289.597ZM177.47 260.297C171.102 260.297 165.922 265.918 165.922 272.828C165.922 279.738 171.102 285.359 177.47 285.359C183.838 285.359 189.018 279.737 189.018 272.828C189.018 265.919 183.837 260.298 177.47 260.298V260.297Z" fill="#D6D6E3"/>
<path d="M192.416 318.819H162.516C159.88 318.816 157.352 317.768 155.488 315.904C153.624 314.04 152.575 311.512 152.572 308.876V279.551C152.574 277.746 153.292 276.016 154.568 274.739C155.845 273.463 157.575 272.745 159.38 272.743H195.548C197.353 272.745 199.084 273.463 200.36 274.739C201.636 276.015 202.354 277.746 202.356 279.551V308.875C202.353 311.511 201.305 314.038 199.442 315.902C197.578 317.766 195.052 318.815 192.416 318.819Z" fill="#31E597"/>
<path d="M183.294 289.425C183.295 288.389 183.02 287.372 182.497 286.478C181.974 285.584 181.222 284.846 180.318 284.339C179.415 283.833 178.393 283.576 177.358 283.596C176.322 283.615 175.311 283.911 174.427 284.451C173.544 284.992 172.821 285.758 172.332 286.671C171.843 287.584 171.606 288.611 171.646 289.646C171.686 290.681 172.002 291.686 172.559 292.559C173.117 293.431 173.898 294.139 174.82 294.61V303.725H180.12V294.61C181.075 294.122 181.878 293.38 182.438 292.465C182.998 291.55 183.294 290.498 183.294 289.425Z" fill="white"/>
</g>
<defs>
<clipPath id="clip0_2_61">
<rect width="799.031" height="618.112" fill="white"/>
</clipPath>
</defs>
</svg>
