<svg width="474" height="417" viewBox="0 0 474 417" fill="none" xmlns="http://www.w3.org/2000/svg">
<path d="M86.1 45.2L113.6 247.5L49.2 416.8L0.299988 56.8L86.1 45.2Z" fill="url(#paint0_linear_0_4)"/>
<path d="M49.2 416.8L146.9 403.6L293.8 17L196.2 30.2L49.2 416.8Z" fill="url(#paint1_linear_0_4)"/>
<path d="M317.8 13.7L205.8 308.2L303.5 295L415.4 0.399994L317.8 13.7Z" fill="url(#paint2_linear_0_4)"/>
<path d="M205.8 308.2L473.5 271.9L438.5 364L267.9 387.1L205.8 308.2Z" fill="url(#paint3_linear_0_4)"/>
<path d="M196.2 30.2L49.2 416.8L0.299988 56.8L50.5 404L196.2 30.2Z" fill="white"/>
<path d="M317.8 13.7L205.8 308.2L473.5 271.9L210.5 304.6L317.8 13.7Z" fill="white"/>
<defs>
<linearGradient id="paint0_linear_0_4" x1="56.97" y1="45.87" x2="56.97" y2="412.89" gradientUnits="userSpaceOnUse">
<stop stop-color="#B4DDC1"/>
<stop offset="1" stop-color="#31E597"/>
</linearGradient>
<linearGradient id="paint1_linear_0_4" x1="209.01" y1="41.73" x2="135.94" y2="383.28" gradientUnits="userSpaceOnUse">
<stop stop-color="#E8F5F1"/>
<stop offset="1" stop-color="#B4DDC1"/>
</linearGradient>
<linearGradient id="paint2_linear_0_4" x1="310.61" y1="11.6" x2="310.61" y2="295.19" gradientUnits="userSpaceOnUse">
<stop stop-color="#B4DDC1"/>
<stop offset="1" stop-color="#31E597"/>
</linearGradient>
<linearGradient id="paint3_linear_0_4" x1="339.69" y1="63.3" x2="339.69" y2="376.12" gradientUnits="userSpaceOnUse">
<stop stop-color="#E8F5F1"/>
<stop offset="1" stop-color="#B4DDC1"/>
</linearGradient>
</defs>
</svg>
