<svg width="50" height="50" viewBox="0 0 50 50" fill="none" xmlns="http://www.w3.org/2000/svg">
<path d="M3 25C3 37.148 12.852 47 25 47C37.148 47 47 37.148 47 25C47 12.852 37.148 3 25 3C12.852 3 3 12.852 3 25Z" stroke="#31E597" stroke-width="2" stroke-miterlimit="10"/>
<path d="M38 25.655C42.51 25.373 45.58 25.638 47 25.818" stroke="#31E597" stroke-miterlimit="10" stroke-linecap="round" stroke-linejoin="round"/>
<path d="M37.401 27.519C42.57 27.519 45.899 28.194 47.1 28.486" stroke="#31E597" stroke-miterlimit="10" stroke-linecap="round" stroke-linejoin="round"/>
<path d="M3 25.802C4.42 25.621 7.49 25.357 12 25.639" stroke="#31E597" stroke-miterlimit="10" stroke-linecap="round" stroke-linejoin="round"/>
<path d="M2.99902 28.4761C4.19802 28.1841 7.52702 27.5081 12.7 27.5081" stroke="#31E597" stroke-miterlimit="10" stroke-linecap="round" stroke-linejoin="round"/>
<path d="M36.3 18.6C36.8 17 37.6 13.4 36.1 12C33.4 12 31.5 13.3 30.6 14.1C29 13.4 27.1 13 25 13C22.9 13 21 13.4 19.3 14.1C18.4 13.3 16.5 12 13.8 12C12.4 13.3 13.1 16.9 13.6 18.6C12.5 20.1 11.9 21.9 11.9 23.6C11.9 29.1 16.1 33 24.9 33C33.7 33 37.9 29.1 37.9 23.6C38 21.8 37.4 20.1 36.3 18.6Z" stroke="#31E597" stroke-width="2" stroke-miterlimit="10"/>
<path d="M19 39C19 39 16 39 15.4 39C13.9 39 12.6 38.4 12 37.2C11.3 35.9 11 33.7 9.19996 32.5C8.89996 32.3 9.09996 32 9.69996 32C10.3 32.1 11.6 32.9 12.4 34C13.3 35.1 14.2 36 15.8 36C17.4 36 19.6 36.1 20.3 35.3" stroke="#31E597" stroke-width="2" stroke-miterlimit="10"/>
<path d="M31 45.7V39.6C31 36.9 29.1 33.1 26.5 33.1H23.7C21.1 33.1 19 36.9 19 39.6V46" stroke="#31E597" stroke-width="2" stroke-miterlimit="10"/>
</svg>
