<svg xmlns="http://www.w3.org/2000/svg" fill="none" viewBox="0 0 800 619"><g clip-path="url(#a)"><path fill="#CCC" d="M130.7 616.5c0 1 .4 1.6 1 1.6h535.1c.6 0 1.1-.7 1.1-1.6 0-.8-.5-1.5-1-1.5H131.6c-.6 0-1 .7-1 1.5Z"/><path fill="#B6B3C5" d="M324.3 611.4h-19.1v3.3h19v-3.3Zm169.1.6h-19.1v3.3h19.1v-3.4Z"/><path fill="#D6D6E3" d="M426.7 461.3a27.5 27.5 0 0 1-54.3 0h-69.5V612h193.3V461.3h-69.5Z"/><path fill="#090814" d="M496.7 600H303.4v5.2h193.3V600Zm291.6-134.7H10.8A10.8 10.8 0 0 1 0 454.5V10.8A10.8 10.8 0 0 1 10.8 0h777.5A10.8 10.8 0 0 1 799 10.8v443.7a10.8 10.8 0 0 1-10.7 10.8Z"/><path fill="#fff" d="M780.4 18H19.5v429.3h760.9V18Z"/><path fill="#F2F2F2" d="M689.5 98.6h-389a8 8 0 0 0-8 8v229.8a8 8 0 0 0 8 8h389a8 8 0 0 0 8-8V106.6a8 8 0 0 0-8-8Z"/><path fill="#fff" d="M689 105.9H300v230.6h389V106Z"/><path fill="#F2F2F2" d="M244 98.6H111a8 8 0 0 0-8 8v98a8 8 0 0 0 8 8h133a8 8 0 0 0 8-8v-98a8 8 0 0 0-8-8Z"/><path fill="#fff" d="M244.6 104.2H110.3V207h134.3V104.2Z"/><path fill="#F2F2F2" d="M244 230.5H111a8 8 0 0 0-8 8v98a8 8 0 0 0 8 8h133a8 8 0 0 0 8-8v-98a8 8 0 0 0-8-8Z"/><path fill="#fff" d="M244.6 236.1H110.3v102.7h134.3V236Z"/><path fill="#E6E6E6" d="M196 118.6h-47a6 6 0 0 0-6 6v55.2a6 6 0 0 0 6 6h47a6 6 0 0 0 6-6v-55.2a6 6 0 0 0-6-6Z"/><path fill="#fff" d="M196 120.3h-47a4.3 4.3 0 0 0-4.3 4.3v55.2a4.3 4.3 0 0 0 4.3 4.2h47a4.3 4.3 0 0 0 4.3-4.2v-55.2a4.3 4.3 0 0 0-4.3-4.3Z"/><path fill="#31E597" d="M201 192.5a11 11 0 1 0 0-22 11 11 0 0 0 0 22Z"/><path fill="#fff" d="M206.2 180h-3.8v-3.7a1.4 1.4 0 0 0-2.5-1c-.2.2-.4.6-.4 1v3.8h-3.8a1.4 1.4 0 0 0-1 2.4c.3.3.6.5 1 .5h3.8v3.8a1.4 1.4 0 0 0 2.9 0V183h3.8a1.4 1.4 0 1 0 0-3Z"/><path fill="#E6E6E6" d="M189 150.6h-23.8a1 1 0 0 1 0-2h23.7a1 1 0 1 1 0 2Zm4 3.4h-27.8a1 1 0 0 1 0-2H193a1 1 0 1 1 0 2Zm-4 11.8h-23.8a1 1 0 0 1 0-2h23.7a1 1 0 0 1 0 2Zm4 3.3h-27.8a1 1 0 1 1 0-2H193a1 1 0 0 1 .7 1.8 1 1 0 0 1-.7.2Zm-33.1-13.6h-8.5a.5.5 0 0 1-.4-.4v-7.5a.5.5 0 0 1 .4-.5h8.5a.5.5 0 0 1 .4.5v7.5a.5.5 0 0 1-.4.4Zm0 15.2h-8.5a.5.5 0 0 1-.4-.5v-7.5a.5.5 0 0 1 .4-.5h8.5a.5.5 0 0 1 .4.5v7.5a.5.5 0 0 1-.1.3l-.2.1h-.1Z"/><path fill="#31E597" d="M189 133.8h-17.5a1 1 0 1 1 0-2H189a1 1 0 0 1 0 2Zm4 3.4h-21.5a1 1 0 1 1 0-2H193a1 1 0 0 1 0 2Zm-25.4 4.1h-16.2a.5.5 0 0 1-.5-.5v-12.6a.5.5 0 0 1 .5-.5h16.2a.5.5 0 0 1 .5.5v12.6a.5.5 0 0 1-.5.5Z"/><path fill="#F2F2F2" d="M550.1 277.7H447.4a4.9 4.9 0 0 1-4.8-5V133.5a4.9 4.9 0 0 1 4.8-4.9h102.7a4.9 4.9 0 0 1 4.9 5v139.3a4.9 4.9 0 0 1-4.9 4.9Z"/><path fill="#2F2E41" d="m477 183.6-.7.2c1 0 2-.2 2.8-.4l-2.1.2Z"/><path fill="#CCC" d="M475 145.2a19.6 19.6 0 0 0-6.6 38l.2.1a19.5 19.5 0 0 0 23.2-8.3 19.6 19.6 0 0 0-16.7-29.8Zm11.4 34.3a18.6 18.6 0 0 1-5.6 3h-.3a17.6 17.6 0 0 1-5.4.9c-2.1 0-4.2-.4-6.2-1l-.1-.1A18.2 18.2 0 0 1 458 172a18.5 18.5 0 1 1 28.4 7.4Z"/><path fill="#E6E6E6" d="M530.2 164.7h-29a2.3 2.3 0 0 1 0-4.6h29a2.3 2.3 0 1 1 0 4.6Zm9.5 7.8h-38.5a2.3 2.3 0 0 1 0-4.6h38.5a2.3 2.3 0 1 1 0 4.6Zm-9.5 29.7h-72.4a2.3 2.3 0 0 1 0-4.6h72.4a2.3 2.3 0 1 1 0 4.6Zm9.5 7.8h-81.9a2.3 2.3 0 1 1 0-4.6h81.9a2.3 2.3 0 0 1 0 4.6Z"/><path fill="#fff" d="M593 182.7a4.3 4.3 0 0 0-2.4-4.3l-79.1-38.6a4.3 4.3 0 0 0-5.8 2l-29.6 60.6a4.3 4.3 0 0 0 2 5.7l79 38.7a4.3 4.3 0 0 0 5.8-2l29.6-60.7c.3-.4.4-.9.4-1.4Z"/><path fill="#3F3D56" d="M593 182.7a4.3 4.3 0 0 0-2.4-4.3l-79.1-38.6a4.3 4.3 0 0 0-5.8 2l-29.6 60.6a4.3 4.3 0 0 0 2 5.7l79 38.7a4.3 4.3 0 0 0 5.8-2l29.6-60.7c.3-.4.4-.9.4-1.4Zm-30.6 62a3.8 3.8 0 0 1-5 1.7l-79.2-38.7a3.8 3.8 0 0 1-1.7-5l29.7-60.8a3.8 3.8 0 0 1 5-1.7l79.2 38.7a3.8 3.8 0 0 1 1.7 5l-29.7 60.7Z"/><path fill="#E6E6E6" d="m584.3 185.5-20.7 42.4a1.2 1.2 0 0 1-1.6.5l-72-35.1-.1-.1a1.2 1.2 0 0 1-.4-1.5l20.7-42.4a1.2 1.2 0 0 1 1.6-.6l72 35.2a1.2 1.2 0 0 1 .5 1.6Z"/><path fill="#31E597" d="M521.1 183.3a10.4 10.4 0 1 0 0-20.8 10.4 10.4 0 0 0 0 20.8Z"/><path fill="#090814" d="m536.4 216.1-46-22.4-.1-.1 40.1-27a1.7 1.7 0 0 1 2.6 1.3l2.3 32.3.1 1.6 1 14.3Z"/><path fill="#000" d="m536.4 216.1-15.7-7.6 13.2-7.5 1-.5.4-.3.1 1.6 1 14.3Z" opacity=".2"/><path fill="#090814" d="m562 228.6-39.8-19.4 13.2-7.4 1-.5 17.1-9.7a2.3 2.3 0 0 1 3.2 1.5l5.3 35.5Z"/><path fill="#31E597" d="M580.6 309h-174a11.6 11.6 0 0 1-11.6-11.6v-95.6a11.6 11.6 0 0 1 11.6-11.6H428c2.9 0 5.6 1 7.8 3l23.1 16.5a8.2 8.2 0 0 0 5.5 2.2h117.3a11.6 11.6 0 0 1 11.6 11.8l-1 73.8a11.7 11.7 0 0 1-11.7 11.5ZM475.8 177.4a12.6 12.6 0 0 0 .2-25.2l-.1.1-.1.1v.1l-.3 24.6v.2a.3.3 0 0 0 .2.1Z"/><path fill="#E6E6E6" d="m465.9 156.3.2.1 8.5 8.7v.1l.1.1-.1 11.8v.2l-.1.1a.4.4 0 0 1-.3.1 12.7 12.7 0 0 1-8.5-21.2h.1Z"/><path fill="#090814" d="m474.5 152.1.2.1.1.2V163a.4.4 0 0 1-.3.4.4.4 0 0 1-.4-.1l-7.4-7.6a.4.4 0 0 1-.1-.3l.1-.2c2.2-2 4.9-3 7.8-3.2Z"/><path fill="#D6D6E3" d="M177.5 289.6c-8.7 0-15.8-7.5-15.8-16.8 0-9.2 7-16.7 15.8-16.7 8.7 0 15.8 7.5 15.8 16.7 0 9.3-7.1 16.8-15.8 16.8Zm0-29.3c-6.4 0-11.6 5.6-11.6 12.5 0 7 5.2 12.6 11.6 12.6 6.3 0 11.5-5.7 11.5-12.6 0-6.9-5.2-12.5-11.5-12.5Z"/><path fill="#31E597" d="M192.4 318.8h-29.9a10 10 0 0 1-10-10v-29.2a6.8 6.8 0 0 1 6.9-6.9h36.1a6.8 6.8 0 0 1 6.9 6.9v29.3a10 10 0 0 1-10 10Z"/><path fill="#fff" d="M183.3 289.4a5.8 5.8 0 1 0-8.5 5.2v9.1h5.3v-9a5.8 5.8 0 0 0 3.2-5.3Z"/></g><defs><clipPath id="a"><path fill="#fff" d="M0 0h799v618.1H0z"/></clipPath></defs></svg>