<svg xmlns="http://www.w3.org/2000/svg" fill="none" viewBox="0 0 50 50"><path stroke="#31E597" stroke-miterlimit="10" stroke-width="2" d="M3 25a22 22 0 1 0 44 0 22 22 0 0 0-44 0Z"/><path stroke="#31E597" stroke-linecap="round" stroke-linejoin="round" stroke-miterlimit="10" d="M38 25.7c4.5-.3 7.6 0 9 .1m-9.6 1.7c5.2 0 8.5.7 9.7 1M3 25.8c1.4-.2 4.5-.4 9-.2m-9 2.9c1.2-.3 4.5-1 9.7-1"/><path stroke="#31E597" stroke-miterlimit="10" stroke-width="2" d="M36.3 18.6c.5-1.6 1.3-5.2-.2-6.6a8.3 8.3 0 0 0-5.5 2.1 14.8 14.8 0 0 0-11.3 0 8.3 8.3 0 0 0-5.5-2.1c-1.4 1.3-.7 4.9-.2 6.6a8.6 8.6 0 0 0-1.7 5c0 5.5 4.2 9.4 13 9.4s13-3.9 13-9.4c.1-1.8-.5-3.5-1.6-5ZM19 39h-3.6c-1.5 0-2.8-.6-3.4-1.8-.7-1.3-1-3.5-2.8-4.7-.3-.2-.1-.5.5-.5.6.1 1.9.9 2.7 2 .9 1.1 1.8 2 3.4 2 1.6 0 3.8.1 4.5-.7"/><path stroke="#31E597" stroke-miterlimit="10" stroke-width="2" d="M31 45.7v-6.1c0-2.7-1.9-6.5-4.5-6.5h-2.8c-2.6 0-4.7 3.8-4.7 6.5V46"/></svg>