<svg xmlns="http://www.w3.org/2000/svg" fill="none" viewBox="0 0 50 50"><path stroke="#31E597" stroke-linecap="round" stroke-linejoin="round" stroke-miterlimit="10" stroke-width="2" d="M9 45h32a4 4 0 0 0 4-4V9a4 4 0 0 0-4-4H9a4 4 0 0 0-4 4v32a4 4 0 0 0 4 4Z"/><path stroke="#31E597" stroke-linecap="round" stroke-linejoin="round" stroke-miterlimit="10" stroke-width="2" d="M11 20h6v19h-6V20Zm3-3c-1.8 0-3-1.1-3-2.5s1.2-2.5 3-2.5 3 1 3 2.5c0 1.4-1.1 2.5-3 2.5Zm25 22h-6V29c0-2-1-4-3.5-4S26 27 26 29v10h-6V20h6v2.6s2-2.6 5.8-2.6c4 0 7.2 2.7 7.2 8.3V39Z"/></svg>