<svg xmlns="http://www.w3.org/2000/svg" fill="none" viewBox="0 0 404 234"><mask id="a" width="405" height="234" x="0" y="0" maskUnits="userSpaceOnUse" style="mask-type:luminance"><path fill="#fff" d="M404 0H.5v234H404V0Z"/></mask><g mask="url(#a)"><path fill="#FFB9B9" d="M295.4 29.2s-2.6 4.7-3.4 5c-.7.1-2.7 17.7 7.9 15.4 10.5-2.3 6.6-7.8 6.6-7.8s.2-6 .6-6.4C307.5 35 296 29 296 29l-.5.2Z"/><path fill="#CCC" d="M364.6 96.5h-324c-1.3 0-2.6.6-3.6 1.5a5 5 0 0 0 0 7.2c1 1 2.3 1.5 3.7 1.5h9.1v121.2a5 5 0 0 0 1.6 3.5 5.2 5.2 0 0 0 7.3 0 5 5 0 0 0 1.5-3.5V106.7h284v121.2a5 5 0 0 0 1.6 3.6 5.3 5.3 0 0 0 7.3 0 5 5 0 0 0 1.5-3.6l1.5-121.2h8.5c1.3 0 2.6-.6 3.6-1.5a5 5 0 0 0 0-7.2 5 5 0 0 0-3.6-1.5Z"/><path fill="#F2F2F2" d="M96.8 74v21.4h-55c-3 0-5.7-1-7.8-2.9a10.6 10.6 0 0 1-.6-15.1 11.1 11.1 0 0 1 8.4-3.4h55Z"/><path fill="#31E597" d="M98.2 95.2c0 .3-.1.5-.3.6-.1.2-.4.3-.6.3H40.8c-3 0-6-1.2-8.2-3.3a11.2 11.2 0 0 1 0-16c2.2-2.1 5.1-3.3 8.2-3.3h56.5c.2 0 .5 0 .6.2a.8.8 0 0 1 0 1.2l-.6.2H40.8a10 10 0 0 0-7 2.8 9.5 9.5 0 0 0 0 13.7 10 10 0 0 0 7 2.8h56.5a.9.9 0 0 1 .6.3.8.8 0 0 1 .3.5Z"/><path fill="#CCC" d="M96.8 79H37.7l-.1-.1a.2.2 0 0 1 0-.3H97a.2.2 0 0 1 0 .3Zm0 3.9H37.7a.2.2 0 0 1-.1 0 .2.2 0 0 1 0-.3H97a.2.2 0 0 1 0 .2Zm0 3.9H37.6a.2.2 0 0 1 0-.2v-.1H97a.2.2 0 0 1 0 .3Zm0 4H37.7a.2.2 0 0 1-.1 0 .2.2 0 0 1 0-.2.2.2 0 0 1 0-.1H97a.2.2 0 0 1 0 .2Z"/><path fill="#F2F2F2" d="M86.4 51.3v21.5h-55c-2.9 0-5.7-1-7.8-2.9a10.6 10.6 0 0 1-.5-15.1 11.1 11.1 0 0 1 8.3-3.5h55Z"/><path fill="#090814" d="M87.8 72.6c0 .3-.1.5-.3.6-.1.2-.3.3-.6.3H30.4c-3 0-6-1.2-8.1-3.3a11.2 11.2 0 0 1 0-16 11 11 0 0 1 8.1-3.3H87a.9.9 0 0 1 .6.2.8.8 0 0 1 .3.6.8.8 0 0 1-.3.6.8.8 0 0 1-.6.2H30.4a10 10 0 0 0-7 2.8 9.5 9.5 0 0 0 0 13.7 10 10 0 0 0 7 2.8H87c.3 0 .5.1.6.3.2.1.3.3.3.5Z"/><path fill="#CCC" d="M86.4 56.3h-59a.2.2 0 0 1-.2-.1.2.2 0 0 1 0-.2.2.2 0 0 1 .1 0h59.1a.2.2 0 0 1 .2 0 .2.2 0 0 1 0 .1.2.2 0 0 1 0 .2.2.2 0 0 1-.2 0Zm0 4h-59a.2.2 0 0 1-.2 0 .2.2 0 0 1 0-.2.2.2 0 0 1 0-.1.2.2 0 0 1 .1 0h59.1a.2.2 0 0 1 .2 0 .2.2 0 0 1 0 .3h-.2Zm0 3.9h-59a.2.2 0 0 1-.2 0 .2.2 0 0 1 0-.1.2.2 0 0 1 0-.2.2.2 0 0 1 .1 0h59.1a.2.2 0 0 1 .2 0 .2.2 0 0 1 0 .3h-.2Zm0 4h-59a.2.2 0 0 1-.2 0 .2.2 0 0 1 0-.2.2.2 0 0 1 0-.1.2.2 0 0 1 .1 0h59.1a.2.2 0 0 1 .2 0 .2.2 0 0 1 0 .3h-.2Zm64 104.3v-18.8a3 3 0 0 0-.9-2.2c-.6-.5-1.4-.9-2.2-.9H74.7c-.9 0-1.7.4-2.3 1a3 3 0 0 0-1 2.1v18.8h79Zm0 7h-79v24.1h79v-24.1Zm-78.9 31.2v18.7a3 3 0 0 0 .9 2.2c.6.5 1.4.9 2.3.9h72.6c.8 0 1.6-.4 2.2-1a3 3 0 0 0 1-2.1v-18.7h-79Z"/><path fill="#fff" d="M110.6 164.7c1.3 0 2.3-1 2.3-2.4 0-1.3-1-2.3-2.3-2.3-1.4 0-2.4 1-2.4 2.3 0 1.3 1 2.4 2.4 2.4Zm0 31.1c1.3 0 2.3-1 2.3-2.3 0-1.3-1-2.3-2.3-2.3-1.4 0-2.4 1-2.4 2.3 0 1.3 1 2.3 2.4 2.3Zm.1 30.6a2.4 2.4 0 1 0 0-4.7 2.3 2.3 0 1 0 0 4.7Z"/><path fill="#F2F2F2" d="M141.5 129.3v21.5h-55a11.2 11.2 0 0 1-8-2.9 10.7 10.7 0 0 1-3.5-7.5 10.5 10.5 0 0 1 3-7.7 11 11 0 0 1 8.5-3.4h55Z"/><path fill="#090814" d="M142.8 150.6c0 .2 0 .4-.2.6l-.6.2H85.5c-3 0-6-1.2-8.2-3.3a11.2 11.2 0 0 1 0-16c2.2-2.1 5.1-3.3 8.2-3.3H142c.2 0 .4 0 .6.2a.8.8 0 0 1 0 1.2l-.6.3H85.5a10 10 0 0 0-7 2.8 9.5 9.5 0 0 0 0 13.6 10 10 0 0 0 7 2.9H142c.2 0 .4 0 .6.2.2.2.2.4.2.6Z"/><path fill="#CCC" d="M141.5 134.3H82.3a.2.2 0 0 1-.1-.2.2.2 0 0 1 .1-.2h59.2a.2.2 0 0 1 .1 0 .2.2 0 0 1 0 .3.2.2 0 0 1-.1 0Zm0 3.9H82.3a.2.2 0 0 1-.1-.2l.1-.1h59.4a.2.2 0 0 1 0 .1.2.2 0 0 1 0 .2h-.1Zm0 4H82.3a.2.2 0 0 1-.1-.3.2.2 0 0 1 .2 0h59a.2.2 0 0 1 .2 0 .2.2 0 0 1 0 .2h-.1Zm0 3.9H82.4a.2.2 0 0 1-.2 0 .2.2 0 0 1 0-.2h.1v-.1h59.2a.2.2 0 0 1 .2.1.2.2 0 0 1 0 .2h-.2Z"/><path fill="#090814" d="M76.9 44.2h-25l-.8.1-6.3 3.1-.5.5a1.1 1.1 0 0 0 .5 1.6l6.3 3.1.7.2h25c.4 0 .8-.1 1-.4.3-.2.4-.5.5-.8v-6.2a1 1 0 0 0-.5-.9c-.2-.2-.6-.3-1-.3Z"/><path fill="#31E597" d="M78.3 45.4v6.2c0 .3-.2.6-.5.8-.2.3-.6.4-1 .4h-5v-8.6h5c.4 0 .8 0 1 .3.3.2.4.5.5.9Z"/><path fill="#E6E6E6" d="M111.2 50a13.8 13.8 0 0 0 13-2.2c4.6-3.8 6-10 7.2-15.7l3.5-16.9-7.3 4.9a52.3 52.3 0 0 0-14 12.1c-3.7 5.1-5.2 12-2.3 17.5"/><path fill="#F2F2F2" d="M111.8 70.5c-.7-5.2-1.5-10.4-1-15.7.5-4.7 2-9.2 5-13 1.5-2 3.4-3.7 5.6-5 .6-.4 1 .5.5.9a20.6 20.6 0 0 0-8.3 9.8 32.2 32.2 0 0 0-1.8 14.1 116.8 116.8 0 0 0 1 9c-.1.2-.2.3-.4.3h-.4a.5.5 0 0 1-.2-.4Z"/><path fill="#E6E6E6" d="M118.8 61.3a9.9 9.9 0 0 0 8.7 4.4c4.4-.2 8-3.2 11.4-6l9.7-8.5-6.4-.3c-4.7-.2-9.4-.4-13.9 1-4.4 1.4-8.4 4.8-9.3 9.3"/><path fill="#F2F2F2" d="M109.7 73.5c3.6-6 7.6-12.8 15-15 2-.6 4-.8 6.2-.6.7 0 .5 1-.2 1-3.5-.3-7 .6-10 2.6-2.8 1.8-5 4.5-6.8 7.2-1.2 1.7-2.2 3.5-3.2 5.2-.3.6-1.3.2-1-.4Z"/><path fill="#F2F2F2" d="M104 80a7.3 7.3 0 0 1 4.7-6.2v-3.6h6V74a7.5 7.5 0 0 1 4.4 6l1.4 16.2h-17.8l1.4-16.2Z"/><path fill="#E6E6E6" d="m218.7 96-2.6-1-1.8-13H190l-2 12.9-2.4 1.2-.2.2v.4l.1.3.4.1h32.5l.3-.1a.5.5 0 0 0 .2-.7l-.3-.3Z"/><path fill="#CCC" d="M261.7 83.7H142.9c-.6 0-1.2-.2-1.7-.7-.4-.4-.6-1-.6-1.6V65.1H264v16.3a2 2 0 0 1-.7 1.6 2 2 0 0 1-1.6.7Z"/><path fill="#090814" d="M264.1 72.8H140.5v-70c0-.8.3-1.5.8-2s1.2-.8 2-.8h118c.8 0 1.5.3 2 .8s.8 1.2.8 2v70Z"/><path fill="#fff" d="M256.8 67.7h-109c-.5 0-1-.2-1.5-.6-.4-.4-.6-1-.6-1.5V7.2c0-.5.2-1 .6-1.5.4-.4 1-.6 1.5-.6h109a2.1 2.1 0 0 1 2.2 2.1v58.4c0 .5-.3 1-.7 1.5-.4.4-1 .6-1.5.6Z"/><path fill="#FFB6B6" d="M228 88.3a6.6 6.6 0 0 1 5.4-1.6 6.7 6.7 0 0 1 4.6 2.9l14.8-2.6 3.7 8.4-20.8 3.3a6.7 6.7 0 0 1-8.5-2 6.3 6.3 0 0 1 .9-8.4Z"/><path fill="#31E597" d="m241.7 99 15.4-.2h2l31.2-.4s8.5-8 15.8-16l-1-7.4c-1-7.2-4.7-13.8-10.3-18.5-10.5 6.9-16.7 20.6-16.7 20.6l-19.4 4.5-1.9.5-12 2.8-3 14Z"/><path fill="#E4E4E4" d="M320.3 144h-28.6c0 1.2-31.4 2.1-31.4 2.1-.7.6-1.3 1.1-1.8 1.8-1.7 2-2.6 4.4-2.6 7v1.7c0 2.9 1.1 5.6 3.2 7.7 2.1 2 5 3.1 7.9 3.2h53.3c3 0 5.8-1.2 8-3.2 2-2 3.2-4.8 3.2-7.7v-1.8c0-2.8-1.2-5.6-3.3-7.6-2-2-5-3.2-7.9-3.2Z"/><path fill="#E4E4E4" d="M299.5 167h-11.6v65.3h11.6V167Z"/><path fill="#E4E4E4" d="M255 231.9c0 1.2 17.5.5 39.1.5 21.7 0 39.2.7 39.2-.5s-17.5-11-39.2-11c-21.6 0-39.1 9.8-39.1 11Z"/><path fill="#FFB6B6" d="M247.2 224.4h-8.6l-4.1-32.4h12.7v32.4Zm-25.4 0H213l-4-32.4h12.7v32.4Zm77.1-186.8c8.3 0 15-6.6 15-14.7 0-8-6.7-14.6-15-14.6s-15 6.6-15 14.6c0 8.1 6.7 14.7 15 14.7Z"/><path fill="#090814" d="M323.1 123.2s5 26-14 29.2a635.9 635.9 0 0 1-46.8 5.7L250 214.6l-16.6-1.5s2.2-68 7.6-73.3c5.5-5.3 40-21.3 40-21.3l42.2 4.7Z"/><path fill="#090814" d="m285.8 112.3-8.4 8.2s-60.3 9.5-62.7 23.1c-3.5 20.6-7.6 65.3-7.6 65.3l18.1-1.3 7.1-50.9 29-6.4 33.1-17.6-8.6-20.4Zm27.5-98.1C311.8 11.5 310 6 307 5a23 23 0 0 0-5.1-1l-5.1 1.9 2.8-2.1-1.7-.1-3.4 1.3 1.8-1.3c-3.2 0-6.5.3-9 2.1-2 1.7-4.2 7.8-4.5 10.4-.4 2.5-.3 5 .4 7.4l.8.9c.3-.7.6-1.4.7-2.2a9.9 9.9 0 0 1 5-6.5c1.4-.8 3.2-.8 4.8-.7l8 .3c1.9 0 4 .2 5.4 1.3 1 .9 1.7 2 2.2 3.1.7 1.5 2.1 7 2.1 7s.9-1 1.3-.3c.6-2 1-4.1 1-6.2.2-2.1-.2-4.2-1.2-6.1Z"/><path fill="#FFB6B6" d="M365.7 29.4a6.7 6.7 0 0 0-4.9 2.6 6.3 6.3 0 0 0-1 5.3l-12 8.7 3.5 8.4 16.9-12.5a6.6 6.6 0 0 0 3.6-2.8 6.3 6.3 0 0 0-1.6-8.4 6.7 6.7 0 0 0-4.5-1.3Z"/><path fill="#31E597" d="m363.8 47-30.2 32.8S319 75.3 308 70.4l-5-15a29.3 29.3 0 0 1-1.5-10.9c15.5-4 33.5 11 33.5 11l22.6-17.3 6.2 8.9Z"/><path fill="#31E597" d="M293.3 125.6c-5.4-1.8-11-3.7-17-4.4h-.2v-.3c6.3-21.3 4.7-35 1.7-55.5a21.2 21.2 0 0 1 12.1-21.8l17.2-1 12.5 3.6a8.2 8.2 0 0 1 6.1 8.2c0 6.7.2 14.2.5 22.2.7 17.9 1.4 36.4-2.6 48.4a20 20 0 0 1-13 4.5c-5.7 0-11.4-2-17.3-3.9Z"/><path fill="#CCC" d="M403.4 234H1.1c-.4 0-.6-.3-.6-.8 0-.4.2-.8.6-.8h402.3c.3 0 .6.4.6.8 0 .5-.3.8-.6.8Z"/><path fill="#090814" d="m219.5 220.3 2.3-2.8c1.4-1.8 2.6 7.6 2.6 7.6s1.3 3.8 1 5.7c-.4 2-7.9 2-9.2 1.6-1.3-.3-7.8 0-7.8 0h-9.8c-8.5-3.8 0-6.3 0-6.3 2.6-.4 11.4-8.3 11.4-8.3l2-3.5c1.3-.4 2.6 4.4 2.6 4.4l4.9 1.6Z"/><path fill="#090814" d="m244.8 220.3 2.4-2.8c1.3-1.8 2.5 7.6 2.5 7.6s1.3 3.8 1 5.7c-.3 2-7.8 2-9.1 1.6-1.3-.3-7.9 0-7.9 0H224c-8.4-3.8 0-6.3 0-6.3 2.6-.4 11.5-8.3 11.5-8.3l2-3.5c1.2-.4 2.5 4.4 2.5 4.4l5 1.6Z"/></g></svg>