<svg xmlns="http://www.w3.org/2000/svg" xml:space="preserve" viewBox="0 0 841.9 595.3"><style>.st9{fill:#fff}</style><g id="olored"><g id="XMLID_2_"><linearGradient id="XMLID_9_" x1="240.97" x2="240.97" y1="134.87" y2="501.89" gradientUnits="userSpaceOnUse"><stop offset="0" stop-color="#b4ddc1"/><stop offset="1" stop-color="#8fcca3"/></linearGradient><path id="XMLID_24_" fill="url(#XMLID_9_)" d="m270.1 134.2 27.5 202.3-64.4 169.3-48.9-360z"/><g id="LWPOLYLINE"><linearGradient id="XMLID_10_" x1="393.01" x2="319.94" y1="130.73" y2="472.28" gradientUnits="userSpaceOnUse"><stop offset="0" stop-color="#e8f5f1"/><stop offset="1" stop-color="#b4ddc1"/></linearGradient><path id="XMLID_25_" fill="url(#XMLID_10_)" d="m233.2 505.8 97.7-13.2L477.8 106l-97.6 13.2z"/></g><linearGradient id="XMLID_11_" x1="494.61" x2="494.61" y1="100.6" y2="384.19" gradientUnits="userSpaceOnUse"><stop offset="0" stop-color="#b4ddc1"/><stop offset="1" stop-color="#8fcca3"/></linearGradient><path id="XMLID_20_" fill="url(#XMLID_11_)" d="m501.8 102.7-112 294.5 97.7-13.2L599.4 89.4z"/><g id="LWPOLYLINE_1_"><linearGradient id="XMLID_12_" x1="523.69" x2="523.69" y1="152.3" y2="465.12" gradientUnits="userSpaceOnUse"><stop offset="0" stop-color="#e8f5f1"/><stop offset="1" stop-color="#b4ddc1"/></linearGradient><path id="XMLID_21_" fill="url(#XMLID_12_)" d="m389.8 397.2 267.7-36.3-35 92.1-170.6 23.1z"/></g></g><path id="XMLID_4_" d="m380.2 119.2-147 386.6-48.9-360L234.5 493z" class="st9"/><path id="XMLID_3_" d="m501.8 102.7-112 294.5 267.7-36.3-263 32.7z" class="st9"/></g></svg>